<mxfile host="app.diagrams.net" modified="2024-02-06T06:42:22.995Z" agent="Mozilla/5.0 (X11; Ubuntu; Linux x86_64; rv:109.0) Gecko/20100101 Firefox/115.0" etag="hLTwxqHn97yrkm-bHX8g" version="23.1.1" type="github">
  <diagram name="Page-1" id="nC795ggCfy0GwTYAiTU3">
    <mxGraphModel dx="1066" dy="615" grid="1" gridSize="10" guides="1" tooltips="1" connect="1" arrows="1" fold="1" page="1" pageScale="1" pageWidth="827" pageHeight="1169" math="0" shadow="0">
      <root>
        <mxCell id="0" />
        <mxCell id="1" parent="0" />
        <mxCell id="FyU8fmQ5faaFX58U_dp6-6" value="" style="rounded=0;whiteSpace=wrap;html=1;" vertex="1" parent="1">
          <mxGeometry x="260" y="30" width="330" height="540" as="geometry" />
        </mxCell>
        <mxCell id="FyU8fmQ5faaFX58U_dp6-7" value="Pepus Digital" style="text;html=1;strokeColor=none;fillColor=none;align=center;verticalAlign=middle;whiteSpace=wrap;rounded=0;" vertex="1" parent="1">
          <mxGeometry x="360" y="30" width="130" height="50" as="geometry" />
        </mxCell>
        <mxCell id="FyU8fmQ5faaFX58U_dp6-8" value="Pengunjung" style="shape=umlActor;verticalLabelPosition=bottom;verticalAlign=top;html=1;outlineConnect=0;" vertex="1" parent="1">
          <mxGeometry x="80" y="220" width="120" height="210" as="geometry" />
        </mxCell>
        <mxCell id="FyU8fmQ5faaFX58U_dp6-9" value="Pustakawan" style="shape=umlActor;verticalLabelPosition=bottom;verticalAlign=top;html=1;outlineConnect=0;" vertex="1" parent="1">
          <mxGeometry x="670" y="220" width="120" height="210" as="geometry" />
        </mxCell>
        <mxCell id="FyU8fmQ5faaFX58U_dp6-21" value="" style="ellipse;whiteSpace=wrap;html=1;" vertex="1" parent="1">
          <mxGeometry x="340" y="90" width="170" height="80" as="geometry" />
        </mxCell>
        <mxCell id="FyU8fmQ5faaFX58U_dp6-22" value="" style="ellipse;whiteSpace=wrap;html=1;" vertex="1" parent="1">
          <mxGeometry x="340" y="210" width="170" height="80" as="geometry" />
        </mxCell>
        <mxCell id="FyU8fmQ5faaFX58U_dp6-23" value="" style="ellipse;whiteSpace=wrap;html=1;" vertex="1" parent="1">
          <mxGeometry x="340" y="330" width="170" height="80" as="geometry" />
        </mxCell>
        <mxCell id="FyU8fmQ5faaFX58U_dp6-24" value="" style="ellipse;whiteSpace=wrap;html=1;" vertex="1" parent="1">
          <mxGeometry x="340" y="450" width="170" height="80" as="geometry" />
        </mxCell>
        <mxCell id="FyU8fmQ5faaFX58U_dp6-26" value="Form Pengunjung" style="text;html=1;strokeColor=none;fillColor=none;align=center;verticalAlign=middle;whiteSpace=wrap;rounded=0;" vertex="1" parent="1">
          <mxGeometry x="375" y="120" width="100" height="30" as="geometry" />
        </mxCell>
        <mxCell id="FyU8fmQ5faaFX58U_dp6-27" value="Pencarian Buku" style="text;html=1;strokeColor=none;fillColor=none;align=center;verticalAlign=middle;whiteSpace=wrap;rounded=0;" vertex="1" parent="1">
          <mxGeometry x="375" y="235" width="100" height="30" as="geometry" />
        </mxCell>
        <mxCell id="FyU8fmQ5faaFX58U_dp6-28" value="Detail Buku" style="text;html=1;strokeColor=none;fillColor=none;align=center;verticalAlign=middle;whiteSpace=wrap;rounded=0;" vertex="1" parent="1">
          <mxGeometry x="385" y="355" width="80" height="30" as="geometry" />
        </mxCell>
        <mxCell id="FyU8fmQ5faaFX58U_dp6-29" value="Laporan Statistik" style="text;html=1;strokeColor=none;fillColor=none;align=center;verticalAlign=middle;whiteSpace=wrap;rounded=0;" vertex="1" parent="1">
          <mxGeometry x="370" y="475" width="105" height="30" as="geometry" />
        </mxCell>
        <mxCell id="FyU8fmQ5faaFX58U_dp6-30" value="" style="endArrow=none;html=1;rounded=0;" edge="1" parent="1">
          <mxGeometry width="50" height="50" relative="1" as="geometry">
            <mxPoint x="160" y="210" as="sourcePoint" />
            <mxPoint x="220" y="130" as="targetPoint" />
          </mxGeometry>
        </mxCell>
        <mxCell id="FyU8fmQ5faaFX58U_dp6-31" value="" style="endArrow=none;html=1;rounded=0;" edge="1" parent="1" source="FyU8fmQ5faaFX58U_dp6-21">
          <mxGeometry width="50" height="50" relative="1" as="geometry">
            <mxPoint x="170" y="220" as="sourcePoint" />
            <mxPoint x="220" y="130" as="targetPoint" />
          </mxGeometry>
        </mxCell>
        <mxCell id="FyU8fmQ5faaFX58U_dp6-32" value="" style="endArrow=none;html=1;rounded=0;" edge="1" parent="1">
          <mxGeometry width="50" height="50" relative="1" as="geometry">
            <mxPoint x="660" y="130" as="sourcePoint" />
            <mxPoint x="710" y="190" as="targetPoint" />
            <Array as="points" />
          </mxGeometry>
        </mxCell>
        <mxCell id="FyU8fmQ5faaFX58U_dp6-33" value="" style="endArrow=none;html=1;rounded=0;entryX=1;entryY=0.5;entryDx=0;entryDy=0;" edge="1" parent="1" target="FyU8fmQ5faaFX58U_dp6-21">
          <mxGeometry width="50" height="50" relative="1" as="geometry">
            <mxPoint x="660" y="130" as="sourcePoint" />
            <mxPoint x="660" y="80" as="targetPoint" />
            <Array as="points">
              <mxPoint x="660" y="130" />
            </Array>
          </mxGeometry>
        </mxCell>
        <mxCell id="FyU8fmQ5faaFX58U_dp6-34" value="" style="endArrow=none;html=1;rounded=0;entryX=0;entryY=0.5;entryDx=0;entryDy=0;" edge="1" parent="1" target="FyU8fmQ5faaFX58U_dp6-22">
          <mxGeometry width="50" height="50" relative="1" as="geometry">
            <mxPoint x="210" y="310" as="sourcePoint" />
            <mxPoint x="440" y="280" as="targetPoint" />
          </mxGeometry>
        </mxCell>
        <mxCell id="FyU8fmQ5faaFX58U_dp6-35" value="" style="endArrow=none;html=1;rounded=0;entryX=0;entryY=0.5;entryDx=0;entryDy=0;" edge="1" parent="1" target="FyU8fmQ5faaFX58U_dp6-23">
          <mxGeometry width="50" height="50" relative="1" as="geometry">
            <mxPoint x="210" y="310" as="sourcePoint" />
            <mxPoint x="350" y="260" as="targetPoint" />
          </mxGeometry>
        </mxCell>
        <mxCell id="FyU8fmQ5faaFX58U_dp6-36" value="" style="endArrow=none;html=1;rounded=0;entryX=1;entryY=0.5;entryDx=0;entryDy=0;" edge="1" parent="1" target="FyU8fmQ5faaFX58U_dp6-22">
          <mxGeometry width="50" height="50" relative="1" as="geometry">
            <mxPoint x="670" y="340" as="sourcePoint" />
            <mxPoint x="440" y="280" as="targetPoint" />
          </mxGeometry>
        </mxCell>
        <mxCell id="FyU8fmQ5faaFX58U_dp6-37" value="" style="endArrow=none;html=1;rounded=0;entryX=1;entryY=0.5;entryDx=0;entryDy=0;" edge="1" parent="1" target="FyU8fmQ5faaFX58U_dp6-23">
          <mxGeometry width="50" height="50" relative="1" as="geometry">
            <mxPoint x="670" y="340" as="sourcePoint" />
            <mxPoint x="520" y="260" as="targetPoint" />
          </mxGeometry>
        </mxCell>
        <mxCell id="FyU8fmQ5faaFX58U_dp6-38" value="" style="endArrow=none;html=1;rounded=0;entryX=1;entryY=0.375;entryDx=0;entryDy=0;entryPerimeter=0;" edge="1" parent="1" target="FyU8fmQ5faaFX58U_dp6-24">
          <mxGeometry width="50" height="50" relative="1" as="geometry">
            <mxPoint x="670" y="340" as="sourcePoint" />
            <mxPoint x="520" y="380" as="targetPoint" />
          </mxGeometry>
        </mxCell>
      </root>
    </mxGraphModel>
  </diagram>
</mxfile>
